<svg xmlns="http://www.w3.org/2000/svg" xmlns:xlink="http://www.w3.org/1999/xlink" xmlns:inkscape="http://www.inkscape.org/namespaces/inkscape" version="1.1" width="96" height="68" viewBox="0 0 96 68">
<g>
<path transform="matrix(1.00006,0,0,-1.00006,33.69594,34.3991)" d="M32.59865 0C32.59865 18.00395 18.00395 32.59865 0 32.59865-18.00395 32.59865-32.59865 18.00395-32.59865 0-32.59865-18.00395-18.00395-32.59865 0-32.59865 18.00395-32.59865 32.59865-18.00395 32.59865 0ZM0 0" fill="#ff0000" fill-opacity=".2"/>
<path transform="matrix(1.00006,0,0,-1.00006,33.69594,34.3991)" stroke-width=".3985" stroke-linecap="butt" stroke-miterlimit="10" stroke-linejoin="miter" fill="none" stroke="#000000" stroke-opacity=".2" d="M32.59865 0C32.59865 18.00395 18.00395 32.59865 0 32.59865-18.00395 32.59865-32.59865 18.00395-32.59865 0-32.59865-18.00395-18.00395-32.59865 0-32.59865 18.00395-32.59865 32.59865-18.00395 32.59865 0ZM0 0"/>
</g>
<g>
<path transform="matrix(1.00006,0,0,-1.00006,33.69594,34.3991)" d="M60.94545 0C60.94545 18.00395 46.35077 32.59865 28.3468 32.59865 10.34283 32.59865-4.25183 18.00395-4.25183 0-4.25183-18.00395 10.34283-32.59865 28.3468-32.59865 46.35077-32.59865 60.94545-18.00395 60.94545 0ZM28.3468 0" fill="#0000ff" fill-opacity=".2"/>
<path transform="matrix(1.00006,0,0,-1.00006,33.69594,34.3991)" stroke-width=".3985" stroke-linecap="butt" stroke-miterlimit="10" stroke-linejoin="miter" fill="none" stroke="#000000" stroke-opacity=".2" d="M60.94545 0C60.94545 18.00395 46.35077 32.59865 28.3468 32.59865 10.34283 32.59865-4.25183 18.00395-4.25183 0-4.25183-18.00395 10.34283-32.59865 28.3468-32.59865 46.35077-32.59865 60.94545-18.00395 60.94545 0ZM28.3468 0"/>
</g>
</svg>
